<svg width="134" height="200" viewBox="0 0 134 200" fill="none" xmlns="http://www.w3.org/2000/svg">
<path fill-rule="evenodd" clip-rule="evenodd" d="M2.35352 64.4253C2.35352 83.9515 16.4238 99.7806 33.7804 99.7807V29.0699C16.4238 29.07 2.35352 44.8991 2.35352 64.4253Z" fill="#CAFBF5"/>
<path fill-rule="evenodd" clip-rule="evenodd" d="M65.2073 135.136C65.2073 115.61 51.137 99.7808 33.7804 99.7807L33.7804 170.491C51.137 170.491 65.2073 154.662 65.2073 135.136Z" fill="#E7EDFD"/>
<path fill-rule="evenodd" clip-rule="evenodd" d="M-36.9302 99.7807L33.7805 99.7807C33.7805 117.137 17.9514 131.208 -1.57483 131.208C-21.101 131.208 -36.9302 117.137 -36.9302 99.7807Z" fill="#FBE1D9"/>
<path fill-rule="evenodd" clip-rule="evenodd" d="M104.491 99.7806L33.7803 99.7806C33.7803 82.424 49.6094 68.3536 69.1356 68.3536C88.6618 68.3536 104.491 82.424 104.491 99.7806Z" fill="#FBD5E5"/>
<mask id="path-5-inside-1" fill="white">
<path fill-rule="evenodd" clip-rule="evenodd" d="M84.0318 50.0319L84 50.0001L34.0001 100C21.7271 87.7271 22.9707 66.585 36.7778 52.7778C50.585 38.9707 71.7271 37.7271 84.0001 50.0001C84.0107 50.0107 84.0213 50.0213 84.0318 50.0319Z"/>
</mask>
<path d="M84 50.0001L85.0607 48.9394L84 47.8787L82.9393 48.9394L84 50.0001ZM84.0318 50.0319L82.9712 51.0926L85.0942 48.9729L84.0318 50.0319ZM34.0001 100L32.9394 101.061L34.0001 102.121L35.0607 101.061L34.0001 100ZM82.9393 51.0607L82.9712 51.0926L85.0925 48.9712L85.0607 48.9394L82.9393 51.0607ZM35.0607 101.061L85.0607 51.0607L82.9393 48.9394L32.9394 98.9394L35.0607 101.061ZM35.0607 98.9394C23.4875 87.3662 24.4963 67.1807 37.8385 53.8385L35.7172 51.7172C21.4452 65.9892 19.9666 88.088 32.9394 101.061L35.0607 98.9394ZM37.8385 53.8385C51.1807 40.4963 71.3662 39.4875 82.9394 51.0607L85.0607 48.9394C72.0879 35.9666 49.9892 37.4452 35.7172 51.7172L37.8385 53.8385ZM82.9394 51.0607C82.9494 51.0708 82.9595 51.0808 82.9695 51.0909L85.0942 48.9729C85.083 48.9617 85.0719 48.9506 85.0607 48.9394L82.9394 51.0607Z" fill="black" fill-opacity="0.08" mask="url(#path-5-inside-1)"/>
<mask id="path-7-inside-2" fill="white">
<path fill-rule="evenodd" clip-rule="evenodd" d="M-16.0346 149.965L-15.9998 150L34.0002 100C46.2732 112.273 45.0295 133.415 31.2224 147.222C17.4153 161.029 -3.72682 162.273 -15.9998 150C-16.0114 149.988 -16.023 149.977 -16.0346 149.965Z"/>
</mask>
<path d="M-15.9998 150L-17.0604 151.061L-15.9998 152.121L-14.9391 151.061L-15.9998 150ZM-16.0346 149.965L-14.9739 148.905L-17.097 151.024L-16.0346 149.965ZM34.0002 100L35.0608 98.9394L34.0002 97.8787L32.9395 98.9394L34.0002 100ZM-14.9391 148.939L-14.9739 148.905L-17.0952 151.026L-17.0604 151.061L-14.9391 148.939ZM32.9395 98.9394L-17.0604 148.939L-14.9391 151.061L35.0608 101.061L32.9395 98.9394ZM32.9395 101.061C44.5127 112.634 43.504 132.819 30.1618 146.162L32.2831 148.283C46.5551 134.011 48.0336 111.912 35.0608 98.9394L32.9395 101.061ZM30.1618 146.162C16.8195 159.504 -3.36593 160.513 -14.9391 148.939L-17.0605 151.061C-4.0877 164.033 18.0111 162.555 32.2831 148.283L30.1618 146.162ZM-14.9391 148.939C-14.9501 148.928 -14.9611 148.917 -14.9721 148.906L-17.097 151.024C-17.0849 151.036 -17.0727 151.049 -17.0605 151.061L-14.9391 148.939Z" fill="black" fill-opacity="0.08" mask="url(#path-7-inside-2)"/>
<mask id="path-9-inside-3" fill="white">
<path fill-rule="evenodd" clip-rule="evenodd" d="M-16 50.0001C-28.2729 62.2731 -27.0293 83.4152 -13.2222 97.2223C0.58495 111.029 21.7271 112.273 34.0001 100C34.0111 99.9891 34.022 99.9781 34.033 99.9671L34 100L-16 50.0001Z"/>
</mask>
<path d="M-16 50.0001L-14.9393 48.9394L-16 47.8788L-17.0606 48.9394L-16 50.0001ZM34.033 99.9671L35.0952 101.026L32.9724 98.9064L34.033 99.9671ZM34 100L32.9393 101.061L34 102.121L35.0607 101.061L34 100ZM-12.1615 96.1616C-25.5037 82.8194 -26.5125 62.634 -14.9393 51.0607L-17.0606 48.9394C-30.0334 61.9122 -28.5548 84.011 -14.2828 98.283L-12.1615 96.1616ZM32.9394 98.9394C21.3662 110.513 1.18072 109.504 -12.1615 96.1616L-14.2828 98.283C-0.0108188 112.555 22.0879 114.034 35.0607 101.061L32.9394 98.9394ZM32.9708 98.908C32.9602 98.9186 32.9497 98.9291 32.9394 98.9394L35.0607 101.061C35.0724 101.049 35.0839 101.038 35.0952 101.026L32.9708 98.908ZM32.9724 98.9064L32.9393 98.9394L35.0607 101.061L35.0937 101.028L32.9724 98.9064ZM35.0607 98.9394L-14.9393 48.9394L-17.0606 51.0607L32.9393 101.061L35.0607 98.9394Z" fill="black" fill-opacity="0.08" mask="url(#path-9-inside-3)"/>
<mask id="path-11-inside-4" fill="white">
<path fill-rule="evenodd" clip-rule="evenodd" d="M84 150C96.2729 137.727 95.0293 116.585 81.2222 102.778C67.4151 88.9707 46.2729 87.727 33.9999 100C33.9901 100.01 33.9803 100.02 33.9705 100.03L34 100L84 150Z"/>
</mask>
<path d="M84 150L82.9393 151.061L84 152.121L85.0606 151.061L84 150ZM33.9705 100.03L32.9081 98.9707L35.0311 101.09L33.9705 100.03ZM34 100L35.0607 98.9394L34 97.8787L32.9393 98.9394L34 100ZM80.1615 103.838C93.5037 117.181 94.5125 137.366 82.9393 148.939L85.0606 151.061C98.0334 138.088 96.5548 115.989 82.2828 101.717L80.1615 103.838ZM35.0606 101.061C46.6338 89.4875 66.8193 90.4962 80.1615 103.838L82.2828 101.717C68.0108 87.4451 45.9121 85.9666 32.9393 98.9394L35.0606 101.061ZM35.0329 101.088C35.0419 101.079 35.0511 101.07 35.0606 101.061L32.9393 98.9394C32.9291 98.9496 32.9186 98.96 32.9081 98.9707L35.0329 101.088ZM35.0311 101.09L35.0607 101.061L32.9393 98.9394L32.9098 98.9689L35.0311 101.09ZM32.9393 101.061L82.9393 151.061L85.0606 148.939L35.0607 98.9394L32.9393 101.061Z" fill="black" fill-opacity="0.08" mask="url(#path-11-inside-4)"/>
</svg>
