<svg width="24" height="24" viewBox="0 0 24 24" fill="none" xmlns="http://www.w3.org/2000/svg">
<path d="M12 7.6875C11.1471 7.6875 10.3133 7.94042 9.6041 8.41429C8.89492 8.88815 8.34217 9.56167 8.01577 10.3497C7.68937 11.1377 7.60397 12.0048 7.77036 12.8413C7.93676 13.6779 8.34749 14.4463 8.9506 15.0494C9.55372 15.6525 10.3221 16.0632 11.1587 16.2296C11.9952 16.396 12.8623 16.3106 13.6503 15.9842C14.4383 15.6578 15.1118 15.1051 15.5857 14.3959C16.0596 13.6867 16.3125 12.8529 16.3125 12C16.3112 10.8567 15.8564 9.7605 15.048 8.95203C14.2395 8.14356 13.1433 7.68879 12 7.6875ZM12 15.1875C11.3696 15.1875 10.7533 15.0006 10.2291 14.6503C9.70494 14.3001 9.29639 13.8022 9.05513 13.2198C8.81388 12.6374 8.75076 11.9965 8.87375 11.3781C8.99674 10.7598 9.30032 10.1919 9.7461 9.7461C10.1919 9.30032 10.7598 8.99674 11.3781 8.87375C11.9965 8.75076 12.6374 8.81388 13.2198 9.05513C13.8022 9.29639 14.3001 9.70494 14.6503 10.2291C15.0006 10.7533 15.1875 11.3696 15.1875 12C15.1865 12.8451 14.8504 13.6553 14.2528 14.2528C13.6553 14.8504 12.8451 15.1865 12 15.1875ZM16.125 2.8125H7.875C6.53281 2.81404 5.24604 3.3479 4.29697 4.29697C3.3479 5.24604 2.81404 6.53281 2.8125 7.875V16.125C2.81404 17.4672 3.3479 18.754 4.29697 19.703C5.24604 20.6521 6.53281 21.186 7.875 21.1875H16.125C17.4672 21.186 18.754 20.6521 19.703 19.703C20.6521 18.754 21.186 17.4672 21.1875 16.125V7.875C21.186 6.53281 20.6521 5.24604 19.703 4.29697C18.754 3.3479 17.4672 2.81404 16.125 2.8125ZM20.0625 16.125C20.0613 17.1689 19.6461 18.1698 18.9079 18.9079C18.1698 19.6461 17.1689 20.0613 16.125 20.0625H7.875C6.83107 20.0613 5.83023 19.6461 5.09206 18.9079C4.35388 18.1698 3.93867 17.1689 3.9375 16.125V7.875C3.93867 6.83107 4.35388 5.83023 5.09206 5.09206C5.83023 4.35388 6.83107 3.93867 7.875 3.9375H16.125C17.1689 3.93867 18.1698 4.35388 18.9079 5.09206C19.6461 5.83023 20.0613 6.83107 20.0625 7.875V16.125ZM17.8125 7.125C17.8125 7.31042 17.7575 7.49168 17.6545 7.64585C17.5515 7.80002 17.4051 7.92018 17.2338 7.99114C17.0625 8.06209 16.874 8.08066 16.6921 8.04449C16.5102 8.00831 16.3432 7.91902 16.2121 7.78791C16.081 7.6568 15.9917 7.48975 15.9555 7.3079C15.9193 7.12604 15.9379 6.93754 16.0089 6.76623C16.0798 6.59493 16.2 6.44851 16.3542 6.3455C16.5083 6.24248 16.6896 6.1875 16.875 6.1875C17.1235 6.1878 17.3618 6.28667 17.5376 6.46242C17.7133 6.63817 17.8122 6.87645 17.8125 7.125Z" fill="black"/>
</svg>
